<svg xmlns="http://www.w3.org/2000/svg" xmlns:xlink="http://www.w3.org/1999/xlink" width="26.541" height="44.11" viewBox="0 0 26.541 44.11"><defs><style>.a{fill:url(#a);}</style><linearGradient id="a" x1="0.5" x2="0.5" y2="1" gradientUnits="objectBoundingBox"><stop offset="0" stop-color="#d33"/><stop offset="1" stop-color="#b51616"/></linearGradient></defs><path class="a" d="M103.86,7.2a.646.646,0,0,0,.646-.646V2.417A2.42,2.42,0,0,0,102.089,0H80.382a2.419,2.419,0,0,0-2.417,2.417V39a2.42,2.42,0,0,0,2.417,2.417h.451v1.177a1.519,1.519,0,0,0,1.517,1.517h1.833A1.519,1.519,0,0,0,85.7,42.593V41.416h11.07v1.177a1.519,1.519,0,0,0,1.517,1.517h1.833a1.519,1.519,0,0,0,1.517-1.517V41.416h.451A2.42,2.42,0,0,0,104.506,39V9.574a.646.646,0,0,0-1.292,0v5.262H88.957a.646.646,0,1,0,0,1.292h14.257V39a1.126,1.126,0,0,1-1.125,1.125H80.382A1.126,1.126,0,0,1,79.257,39V16.128h6.679a.646.646,0,0,0,0-1.292H79.257V2.417a1.126,1.126,0,0,1,1.125-1.125h21.708a1.126,1.126,0,0,1,1.125,1.125V6.554a.646.646,0,0,0,.646.646ZM84.408,42.593a.225.225,0,0,1-.225.225H82.35a.225.225,0,0,1-.225-.225V41.416h2.283Zm15.937,0a.225.225,0,0,1-.225.225H98.288a.225.225,0,0,1-.225-.225V41.416h2.283Z" transform="translate(-77.965 0)"/><path class="a" d="M112.011,39.21v6.027a1.83,1.83,0,1,0,3.66,0V39.21a1.83,1.83,0,1,0-3.66,0Zm2.368,0v6.027a.538.538,0,0,1-1.076,0V39.21a.538.538,0,1,1,1.076,0Z" transform="translate(-109.078 -34.16)"/><path class="a" d="M112.011,206.652v6.027a1.83,1.83,0,1,0,3.66,0v-6.027a1.83,1.83,0,0,0-3.66,0Zm2.368,0v6.027a.538.538,0,1,1-1.076,0v-6.027a.538.538,0,1,1,1.076,0Z" transform="translate(-109.078 -187.176)"/></svg>