<svg xmlns="http://www.w3.org/2000/svg" xmlns:xlink="http://www.w3.org/1999/xlink" width="50.391" height="40.553" viewBox="0 0 50.391 40.553"><defs><style>.a{fill:url(#a);}</style><linearGradient id="a" x1="0.5" x2="0.5" y2="1" gradientUnits="objectBoundingBox"><stop offset="0" stop-color="#d33"/><stop offset="1" stop-color="#b51616"/></linearGradient></defs><path class="a" d="M50.052,78.479a8.3,8.3,0,0,0-4.621-4.437,10.7,10.7,0,0,0-5.637-.614l-.768-1.641V69.5a3.757,3.757,0,0,0,1.3.232h2.609a1.676,1.676,0,0,0,1.675-1.674V63.847a1.676,1.676,0,0,0-1.675-1.674H40.324a3.759,3.759,0,0,0-1.3.232v-2.55a2.308,2.308,0,0,0-.271-1.114,2.351,2.351,0,0,0-1.62-1.317L36,54.84a1.611,1.611,0,0,0,.629-1.275V52.3a1.671,1.671,0,0,0-1.483-1.6L31.426,50h0a1.381,1.381,0,0,0-1.148.314,1.7,1.7,0,0,0-.6,1.292v1.958a1.618,1.618,0,0,0,1.616,1.615h3.236l.958,2.182-3.755-.013h-.012a2.089,2.089,0,0,0-2.184,2.041,2.157,2.157,0,0,0,2.124,2.25l2.979.174V64.2a7.15,7.15,0,0,0-2.25-1.009c-3.666-1-8.8-.3-10.725,2.25H15.846a.744.744,0,1,0,0,1.488H21.31V70.8H3.336c-.988,0-1.577-.481-1.577-1.287V66.4a1.105,1.105,0,0,1,.28-.835,1.419,1.419,0,0,1,1.045-.28h.048l1.336-.006c.287,0,.544.233.939.611A3,3,0,0,0,7.322,66.93h5.284a.744.744,0,1,0,0-1.488H7.382c-.292-.022-.554-.254-.948-.631A2.852,2.852,0,0,0,4.468,63.79l-1.32.006a2.833,2.833,0,0,0-2.129.683A2.524,2.524,0,0,0,.271,66.4v3.115a2.8,2.8,0,0,0,3.065,2.775H8.327l-.212,1c-3.386.06-7.044,1.7-7.913,4.917a2.877,2.877,0,0,0,.191,2.615,1.5,1.5,0,0,0,.516.407,7.782,7.782,0,0,0,15.226,3.215l3.364,0a.744.744,0,0,0,0-1.488h0l-8.615.009a2.948,2.948,0,0,0,.2-.634l.209-.916H23.949a2.418,2.418,0,0,0,2.335-1.16l4.1-5.631L30.4,74.6l1.69-2.318h2.4l-7.21,9.422-.026.036a2.193,2.193,0,0,1-1.936,1.209h-2.9a.744.744,0,1,0,0,1.488h2.9A3.731,3.731,0,0,0,28.479,82.6L35.2,73.807l.564,1.174a7.3,7.3,0,0,0-2.8,3.54A2.789,2.789,0,0,0,33,81.112a1.675,1.675,0,0,0,.76.591,7.783,7.783,0,1,0,15.425.035,1.72,1.72,0,0,0,.9-.683,2.874,2.874,0,0,0-.034-2.575ZM39.027,64.067a2.278,2.278,0,0,1,1.3-.406h2.609a.189.189,0,0,1,.187.186v4.207a.189.189,0,0,1-.187.186H40.324a2.278,2.278,0,0,1-1.3-.406Zm-3.884-10.5a.131.131,0,0,1-.131.128H31.29a.13.13,0,0,1-.129-.128V51.606a.234.234,0,0,1,.05-.132l3.666.682c.15.027.265.1.265.14ZM1.817,79.911H1.78a.438.438,0,0,1-.231-.026c-.043-.043-.155-.388.089-1.292.57-2.11,3.14-3.659,6.161-3.807L6.717,79.911h-4.9ZM8.242,84.4c.066.012.133.02.2.027a.744.744,0,0,0,.19.025h0l2.108,0a2.78,2.78,0,0,1-4.984-1.694A2.75,2.75,0,0,1,6.114,81.4H6.4l-.011.052-.005.027A2.377,2.377,0,0,0,8.242,84.4Zm4.216.048,2.145,0A6.294,6.294,0,0,1,2.393,81.4h2.1a4.269,4.269,0,0,0,7.967,3.049ZM11.3,74.637,9.969,80.5l0,.013-.343,1.5c0,.01,0,.02-.006.031a.959.959,0,0,1-1.114.893c-.195-.035-.815-.223-.653-1.192l.194-.92c0-.011.005-.022.007-.034l1.8-8.5h1.993L11.313,74.6c0,.012-.006.023-.008.034Zm3.587,5.274H11.628l.92-4.037a5.921,5.921,0,0,1,2.469,2.813l0,.011a4.657,4.657,0,0,1,.322,1.218Zm-2-5.546.474-2.078h6.985L15.88,77.116a7.518,7.518,0,0,0-2.987-2.751Zm3.668,4.2,5.818-6.283h7.871L29.4,73.447H24.872a.744.744,0,1,0,0,1.488h3.447l-1.913,2.625A2.908,2.908,0,0,0,21.42,79.4a2.93,2.93,0,0,0,.016.524h-4.6a5.07,5.07,0,0,0-.272-1.355Zm7.389,1.355H22.943a1.434,1.434,0,0,1-.038-.431,1.425,1.425,0,0,1,1.422-1.331A1.367,1.367,0,0,1,25.5,78.8l-.42.576C24.728,79.863,24.642,79.925,23.949,79.925ZM34.637,70.8H22.8V66.405c1.423-2.044,6.034-2.642,9.2-1.776.795.218,2.643.864,2.643,2.156V70.8Zm.787-10.429-3.68-.215a.688.688,0,0,1-.724-.718c.006-.181.085-.6.7-.6h.006l4.9.017a.863.863,0,0,1,.787.517.742.742,0,0,0,.035.069.835.835,0,0,1,.1.416v12.1a.743.743,0,0,0,.07.315l1.065,2.277q.014.034.031.066l3.42,7.308c.2.421.124.706-.223.871-.241.114-.665.146-.807-.15L36.124,72.287V61.112a.744.744,0,0,0-.7-.743Zm8.247,21.5h.435a2.782,2.782,0,1,1-5.272,0h.241l.679,1.414a1.906,1.906,0,0,0,1.778,1.076,2.368,2.368,0,0,0,1.008-.226A2,2,0,0,0,43.671,81.871Zm-9.453-1.613c-.073-.1-.123-.479.148-1.229a5.782,5.782,0,0,1,2.056-2.686l1.94,4.041H34.718a.7.7,0,0,1-.5-.126Zm7.253,8.785a6.292,6.292,0,0,1-6.232-7.172h2.057a4.268,4.268,0,1,0,8.35,0H47.7a6.27,6.27,0,0,1-6.229,7.172Zm7.372-8.8c-.059.091-.255.145-.524.145h-5.27L40.455,74.84c3.1-.339,6.742.787,8.233,4.231a1.554,1.554,0,0,1,.155,1.167Z" transform="translate(0.002 -49.977)"/></svg>