<svg xmlns="http://www.w3.org/2000/svg" xmlns:xlink="http://www.w3.org/1999/xlink" width="25.143" height="44.369" viewBox="0 0 25.143 44.369"><defs><style>.a{fill:url(#a);}</style><linearGradient id="a" x1="0.5" x2="0.5" y2="1" gradientUnits="objectBoundingBox"><stop offset="0" stop-color="#d33"/><stop offset="1" stop-color="#b51616"/></linearGradient></defs><g transform="translate(8.134 2.218)"><path class="a" d="M212.935,25.6H205.54a.739.739,0,0,0,0,1.479h7.395a.739.739,0,0,0,0-1.479Z" transform="translate(-204.801 -25.6)"/></g><g transform="translate(19.966 2.218)"><path class="a" d="M342.813,25.6h-.739a.739.739,0,0,0,0,1.479h.739a.739.739,0,1,0,0-1.479Z" transform="translate(-341.334 -25.6)"/></g><g transform="translate(9.613 37.714)"><path class="a" d="M225.743,435.2h-1.836a2.043,2.043,0,0,0-2.04,2.04v.357a2.042,2.042,0,0,0,2.039,2.04h1.836a2.042,2.042,0,0,0,2.04-2.04v-.357A2.043,2.043,0,0,0,225.743,435.2Zm.561,2.4a.561.561,0,0,1-.561.561h-1.836a.561.561,0,0,1-.561-.561v-.357a.561.561,0,0,1,.561-.561h1.835a.561.561,0,0,1,.561.561Z" transform="translate(-221.867 -435.2)"/></g><g transform="translate(0)"><path class="a" d="M133.4,0h-19.8a2.677,2.677,0,0,0-2.673,2.673V41.7a2.677,2.677,0,0,0,2.673,2.673h19.8a2.676,2.676,0,0,0,2.673-2.672V2.673A2.676,2.676,0,0,0,133.4,0ZM134.6,41.7A1.2,1.2,0,0,1,133.4,42.89h-19.8a1.2,1.2,0,0,1-1.194-1.194V2.673a1.2,1.2,0,0,1,1.194-1.194h19.8A1.2,1.2,0,0,1,134.6,2.673V41.7Z" transform="translate(-110.933)"/></g><g transform="translate(0 4.437)"><path class="a" d="M135.337,51.2H111.673a.74.74,0,0,0-.739.739V83a.74.74,0,0,0,.739.739h23.664a.74.74,0,0,0,.739-.739V51.939A.74.74,0,0,0,135.337,51.2ZM134.6,82.258H112.413V52.679H134.6Z" transform="translate(-110.934 -51.2)"/></g></svg>