<svg xmlns="http://www.w3.org/2000/svg" xmlns:xlink="http://www.w3.org/1999/xlink" width="42.539" height="38.053" viewBox="0 0 42.539 38.053"><defs><style>.a{fill:url(#a);}</style><linearGradient id="a" x1="0.5" x2="0.5" y2="1" gradientUnits="objectBoundingBox"><stop offset="0" stop-color="#d33"/><stop offset="1" stop-color="#b51616"/></linearGradient></defs><g transform="translate(13.349 0)"><path class="a" d="M162.088,27.243a.83.83,0,1,0,.243.587A.837.837,0,0,0,162.088,27.243Z" transform="translate(-160.67 -27)"/></g><g transform="translate(0 0)"><path class="a" d="M41.708,27H17.725a.831.831,0,1,0,0,1.662H40.878v6.8L25.722,50.617A.831.831,0,1,0,26.9,51.792l13.98-13.98V55.581H1.662V28.662h8.89a.831.831,0,1,0,0-1.662H.831A.831.831,0,0,0,0,27.831V56.412a.831.831,0,0,0,.831.831H15.121v2.825H10.3a.831.831,0,0,0-.831.831v2.493H4.749a.831.831,0,0,0,0,1.662H34.816a.831.831,0,1,0,0-1.662H33.068V60.9a.831.831,0,0,0-.831-.831H27.418V57.243H41.708a.831.831,0,0,0,.831-.831V27.831A.831.831,0,0,0,41.708,27ZM16.783,57.243h8.973v2.825H16.783Zm14.623,4.487v1.662H11.133V61.729H31.406Z" transform="translate(0 -27)"/></g><g transform="translate(5.964 7.061)"><path class="a" d="M80.553,112.235a.831.831,0,0,0-1.175,0l-7.353,7.353a.831.831,0,1,0,1.175,1.175l7.354-7.353A.831.831,0,0,0,80.553,112.235Z" transform="translate(-71.781 -111.991)"/></g><g transform="translate(3.617 16.761)"><path class="a" d="M44.958,228.983a.83.83,0,1,0,.243.587A.837.837,0,0,0,44.958,228.983Z" transform="translate(-43.54 -228.74)"/></g><g transform="translate(36.96 36.391)"><path class="a" d="M446.268,465.243a.83.83,0,1,0,.243.587A.837.837,0,0,0,446.268,465.243Z" transform="translate(-444.85 -465)"/></g><g transform="translate(14.1 11.216)"><path class="a" d="M175.188,161.994h-4.653a.831.831,0,1,0,0,1.662h1.5V169.8a.831.831,0,0,0,1.662,0v-6.149h1.5a.831.831,0,0,0,0-1.662Z" transform="translate(-169.704 -161.994)"/></g><g transform="translate(22.125 11.216)"><path class="a" d="M272.04,162.034a.831.831,0,0,0-1.051.526l-1.538,4.615-1.538-4.615a.831.831,0,0,0-1.576.525l2.326,6.98a.831.831,0,0,0,1.576,0l2.326-6.98A.831.831,0,0,0,272.04,162.034Z" transform="translate(-266.293 -161.992)"/></g></svg>